<?xml version="1.0" encoding="UTF-8" standalone="no"?>
<svg
        xmlns:rdf="http://www.w3.org/1999/02/22-rdf-syntax-ns#"
        xmlns:svg="http://www.w3.org/2000/svg"
        xmlns="http://www.w3.org/2000/svg"
        id="Layer_1"
        viewBox="0 0 170 199.99999"
        version="1.1"
        width="170"
        height="200">
  <defs
          id="defs896">
    <style id="style889">
      <!-- .cls-1 fill for GEANT logo, default #ffffff -->
      .cls-1{fill:{{.LogoColor}};}
      <!-- .cls-2 background color, default #0e3f5f -->
      .cls-2{fill:{{.BackgroundColor}};}
      <!-- .cls-3 horizontal bars color, default #e78a2d -->
      .cls-3{fill:{{.HorizontalBarsColor}};}
      <!-- .cls-4 top label color both lines, default #e78a2d -->
      .cls-4{fill:{{.TopLabelColor}};font-family:Verdana,sans-serif;font-size:14px;font-weight:600;}
      <!-- .cls-5 top label color both lines, default #e78a2d -->
      .cls-5{fill:url(#linear-gradient);}
      <!-- .cls-6 border color, default #e78a2d -->
      .cls-6{fill:{{.BorderColor}};}
      <!-- .cls-7 cert name label color, all 3 lines, default #fff -->
      .cls-7{fill:{{.CertNameColor}};font-family:Verdana,sans-serif;font-size:16px;font-weight:600;}
    </style>
    <linearGradient
            id="linear-gradient"
            x1="71.209999"
            y1="27.66"
            x2="109.51"
            y2="39.759998"
            gradientTransform="matrix(1,0,0,-1,0,202)"
            gradientUnits="userSpaceOnUse">
      <stop
              offset="1"
              stop-color="{{.GradientStartColor}}"
              id="stop891" />
      <stop
              offset="1"
              stop-color="{{.GradientEndColor}}"
              id="stop893" />
    </linearGradient>
  </defs>
  <rect
          class="cls-6"
          width="170"
          height="200"
          id="rect898"
          x="0"
          y="0" />
  <polygon
          class="cls-2"
          points="164.81,44 165.31,193.5 6.3,193.15 6.3,5.89 124,5.89 "
          id="polygon900" />
  <rect
          class="cls-3"
          x="21.110001"
          y="67"
          width="131.83"
          height="3.0"
          rx="1.5"
          ry="1.5"
          id="rect902" />
  <rect
          class="cls-3"
          x="19.879999"
          y="142.56"
          width="131.83"
          height="3.0"
          rx="1.5"
          ry="1.5"
          id="rect904" />
  <!-- Top label: Certificate name in gray (from CertificateName words) -->
  <text class="cls-4" id="text_top1" x="20" y="31.94">
    <tspan x="20" y="31.94" id="tspan_top1">{{getWord 0 .CertNameWords}}</tspan>
  </text>
  <text class="cls-4" id="text_top2" x="20" y="48.9">
    <tspan x="20" y="48.9" id="tspan_top2">{{getWord 1 .CertNameWords}}</tspan>
  </text>
  <text class="cls-4" id="text_top3" x="20" y="61">
    <tspan x="20" y="61" id="tspan_top3">{{getWord 2 .CertNameWords}}</tspan>
  </text>
  <!-- Centered GEANT logo group moved to the center of the certificate -->
  <g id="geant_logo_center" transform="translate(0,0)">
    <!-- Center the logo within the inner polygon (approx content area: x=6..164, y=6..193). Fine‑tuned to look optically centered. -->
    <g transform="translate(28,80) scale(0.85)">
      <g>
        <g>
          <g>
            <path class="cls-1" d="M28.9,31.6c1-0.8,1.9-1.2,2.7-1.2c1.7,0.1,2.2,1.2,2.3,1.9c-0.4,0.1-7.8,2.6-8.2,2.7 c-0.1-0.1-0.2-0.3-0.4-0.4C25.8,34.4,28.9,31.6,28.9,31.6z"/>
            <path class="cls-1" d="M1.5,47.5c0,8.4,3.7,12.7,11,12.7c4.8,0,7.7-2.1,7.8-2.2l0.2-0.2V46.2H10.5v3.2c0,0,5,0,6,0c0,0.9,0,6,0,6.5 c-0.6,0.3-2.1,1-4.2,1c-4.3,0-6.4-3.1-6.4-9.4c0-3.6,1-8,6-8c3.3,0,4.4,1.9,4.4,3.7v0.6h4.5v-0.6c0-4.1-3.6-6.9-8.9-6.9 C5.2,36.3,1.5,40.4,1.5,47.5z"/>
            <path class="cls-1" d="M36.4,36.7H23.2v23.1h14.1v-3.2c0,0-9,0-10,0c0-0.9,0-6.3,0-7.3c1,0,9.2,0,9.2,0v-3.2c0,0-8.2,0-9.2,0 c0-0.9,0-5.3,0-6.2c1,0,9.7,0,9.7,0v-3.2H36.4z"/>
            <g>
              <path class="cls-1" d="M95.8,36.7h-20c0,0,0,13.9,0,17.1c-1.6-2.8-9.9-17.1-9.9-17.1h-4.7v23.1h3.9c0,0,0-13.9,0-17.1 c1.6,2.8,9.9,17.1,9.9,17.1h4.7c0,0,0-18.8,0-19.9c0.9,0,5.5,0,6.4,0c0,1.1,0,19.9,0,19.9h4.1c0,0,0-18.8,0-19.9 c0.9,0,6.2,0,6.2,0v-3.2H95.8z"/>
            </g>
            <path class="cls-1" d="M51.5,36.7h-0.4h-4l-8.7,23.1h4.2c0,0,2.3-6.1,2.5-6.8c0.7,0,7.8,0,8.5,0c0.3,0.7,2.6,6.8,2.6,6.8h4.2 L51.5,36.7z M46.3,49.8c0.4-1.1,2.3-6.7,3-8.7c0.7,2,2.6,7.5,3,8.7C51.2,49.8,47.4,49.8,46.3,49.8z"/>
          </g>
          <g>
            <path fill="#FFFFFF" d="M134.7,14.7c-15.2-18.8-76.9,7.8-93.4,14.8c-1.2,0.5-2.7,0.4-3.6-1.3c0.7,1.7,2,2.3,3.7,1.7 c22-8.8,75.2-27.9,88.5-10.5c6,7.9,4.3,17.6-2.3,31.3c-0.3,0.6-0.5,1-0.6,1.1c0,0,0,0.1-0.1,0.1c0,0,0,0.1-0.1,0.1 c-0.5,0.8-1.2,1.3-1.8,1.5c0.8,0,1.6-0.4,2.2-1.4c0.2-0.3,0.4-0.6,0.6-1l0,0C137.7,34.7,141.1,22.5,134.7,14.7z"/>
          </g>
          <g>
            <path fill="#E5004B" d="M123.2,52.6c-0.2-0.2-3-2.6-5.7-5.2C103,33.8,59.4-8.4,40.3,2.7c-5.4,3.1-6.3,12.2-3,24.3c0,0,0,0,0,0.1v0 c0,0.2,0.1,0.3,0.1,0.5c0.4,1.3,1.3,2.1,2.4,2.1c-0.8-0.2-1.5-0.8-1.9-1.8c-0.1-0.1-0.1-0.3-0.1-0.4c-0.1-0.2-0.1-0.4-0.2-0.7 l0,0c0-0.1-0.1-0.3-0.1-0.4c-1.8-10.3,0.4-17,4.5-19.8c15.3-10,52,21.6,70.4,37.5c4.2,3.7,9,7.7,10.5,8.8c2.1,1.6,3.8-0.2,4.3-1 C126.6,53,124.8,54,123.2,52.6z"/>
          </g>
        </g>
      </g>
    </g>
  </g>

  <!-- Bottom label: Software name and version -->
  <text class="cls-7" id="bottom_name" x="85" y="168" text-anchor="middle">
    <tspan x="85" y="168" id="tspan_bottom_name">{{.SoftwareName}}</tspan>
  </text>
  <text class="cls-7" id="bottom_version" x="85" y="186" text-anchor="middle">
    <tspan x="85" y="186" id="tspan_bottom_version">{{.SoftwareVersion}}</tspan>
  </text>
</svg>
