<svg xmlns="http://www.w3.org/2000/svg" width="243" height="20">
  <!-- Gradient overlay for the badge (faint shadow) -->
  <linearGradient id="b" x2="0" y2="100%">
    <stop offset="0" stop-color="#bbb" stop-opacity=".1"/>
    <stop offset="1" stop-opacity=".1"/>
  </linearGradient>
  <clipPath id="a">
    <rect width="243" height="20" rx="3" fill="#fff"/>
  </clipPath>
  <g clip-path="url(#a)">
    <!-- Left part background: DARK (badge left background) -->
    <rect width="46" height="20" fill="#333"/>
    <!-- Change #333 here for another color, e.g. "#0072ce" for blue -->

    <!-- Right part background: LIGHT (badge right background) -->
    <rect x="46" width="197" height="20" fill="#e8e8e8"/>
    <!-- Change #e8e8e8 here for another color -->

    <!-- Gradient overlay again -->
    <rect width="243" height="20" fill="url(#b)"/>
  </g>
  <!-- GEANT logo inserted here, scaled to fit 46x20. 
       All fills below are white ("#fff"). 
       You can change to e.g. "#0072ce" for blue, "#e5004b" for red, etc. -->
  <g>
    <g transform="translate(3,1.5) scale(0.016)">
      <g>
        <!-- LOGO PATHS -->
        <!-- Change fill="#0072ce" below to another color as desired, e.g. fill="#0072ce" -->
        <!-- letter G -->
        <path fill="#fff" d="m164.73,891.04v-59h182s5.99,198.27-.23,206.89-99.52,63.64-197.77,41.11S14.09,997.13,1.9,891.34s33-238.75,173.35-238.75c142.98,0,180.63,78.66,174.48,136.44h-82s8.97-81.21-81.8-76.31-112.9,83.31-103.2,176.14c9.95,95.16,38.47,160.16,189,120.16v-118h-107Z"/>
        <!-- letter E -->
        <polygon fill="#fff" points="643.73 718.04 643.73 659.04 394.73 659.04 394.73 1078.04 649.73 1078.04 649.73 1019.04 469.73 1019.04 469.73 889.04 635.73 889.04 635.73 830.04 469.73 830.04 469.73 718.04 643.73 718.04"/>
        <!-- letter A -->
        <path fill="#fff" d="m905.73,659.04h-79l-157,418h75l44-121h155l46,121h75l-159-418Zm-94,238l54-155,56.66,155h-110.66Z"/>
        <!-- letters NT -->
        <polyline fill="#fff" points="1414.73 1077.04 1414.73 718.04 1529.73 718.04 1529.73 1077.04 1603.73 1077.04 1603.73 718.04 1714.73 718.04 1714.73 661.04 1343.73 659.04 1343.73 968.04 1165.73 659.04 1080.73 659.04 1080.73 1078.04 1152.52 1078.04 1152.52 772.04 1329.73 1077.04"/>
        <!-- É or é (e-acute) accent over E -->
        <path fill="#fff" d="m424.21,607.03c6.91-11.08,68.73-68.83,101.96-74.86,36.05-6.54,55.59,28.44,50.22,35.04s-144.49,49.24-144.49,49.24c-3.2,1.55-9.71-6.17-7.69-9.42Z"/>
        <g>
          <!-- left curve -->
          <path fill="#fff" d="m662.69,516.06l-6.01,4.1s-31.22-7.03-44.99-125.1c-16.37-140.34-52.4-350.24,153.59-389.75,205.99-39.51,519.9,151.7,601.71,226.33,100.36,74.71,472.66,373.9,511.84,429.6,72.84,63.94,316.87,276.46,323.38,279.31,0,0,5.67,2.52.25,7.2-5.42,4.68-44.28-21.69-110.77-72.69-54.67-41.93-298-272.5-466.02-386.82-75.84-51.6-144.39-114.29-222.68-164.66-96.59-62.14-222.4-143.17-249.87-161.3,0,0-133.05-90.43-314.73-84.87-181.68,5.56-189.89,195.49-190.87,198.71s-23.01,164.87,15.18,239.94Z"/>
          <!-- right curve -->
          <path fill="#fff" d="m662.69,516.06l-6.01,4.1s7.56,4.72,21.2,4.85c14.33.13,21.26.55,129.38-38.81,98.12-35.72,541.21-196.09,777.83-246.93,108.6-23.34,263.26-35.36,375.4-36.72,193.54-2.36,286.2,62.63,320.7,94.24,53,48.56,64.81,76.81,86.13,140.24,44.19,131.51-50.71,375.82-73.38,413.57-20.04,33.37-36.3,103.23-94.42,88.02-.26,6.49-4.11,8.34-4.11,8.34,0,.28,34.23,12.68,56.8-10.84,22.91-23.87,52.92-67.43,90.73-147.53,64-135.59,109.53-247.13,114.11-353.79,4.58-106.66-53.35-213.43-146.11-258.21-110.52-53.34-293.83-75.46-550.41-22.78-188.57,43.02-353.75,98.2-353.75,98.2,0,0-291.57,90.9-416.09,145.04-24.96,10.85-242.28,104.19-252.87,107.9-5.8,2.03-62.28,28.72-75.13,11.1Z"/>
        </g>
      </g>
    </g>
  </g>
  <g text-anchor="middle" font-family="DejaVu Sans,Verdana,Geneva,sans-serif" font-size="12">
    <!-- Badge right text color: dark blue -->
    <text x="144" y="15" fill="#0c0f5e">Self-Assessed Dependencies</text>
    <!-- Change fill="#0c0f5e" to another color as needed -->
  </g>
  <filter id="shadow">
    <feDropShadow dx="0" dy="1" stdDeviation="0.5" flood-color="#000" flood-opacity="0.3"/>
  </filter>
  <!-- Border/shadow is just a transparent rectangle with shadow filter -->
  <rect width="243" height="20" rx="3" fill="transparent" filter="url(#shadow)"/>
</svg>
