<?xml version="1.0" encoding="UTF-8"?><svg id="Layer_1" xmlns="http://www.w3.org/2000/svg" viewBox="0 0 50 50"><defs><style>.cls-1{fill:#fff;}</style></defs><path class="cls-1" d="M13.04,39.89h-1.77c-.18,0-.32.04-.41.13-.1.08-.15.21-.15.37s.05.28.15.37c.1.09.23.14.41.14h1.18v1.73c-.19.06-.39.11-.59.14-.29.06-.58.08-.87.08-.83,0-1.46-.22-1.88-.67-.42-.45-.63-1.1-.63-1.97,0-.57.09-1.05.27-1.44.18-.39.46-.69.82-.9.37-.21.81-.31,1.34-.31.34,0,.66.04.94.11.28.07.56.18.83.34.14.08.27.11.39.08s.22-.07.3-.16c.08-.08.13-.18.16-.3.03-.12.02-.23-.02-.34-.04-.11-.12-.21-.24-.28-.36-.22-.74-.38-1.14-.48-.4-.09-.81-.14-1.21-.14-.61,0-1.15.09-1.63.27-.48.18-.89.43-1.22.77-.33.33-.59.73-.76,1.2-.18.47-.26,1-.26,1.59,0,.78.15,1.45.45,2.02.3.57.74,1.01,1.32,1.31.58.31,1.28.46,2.12.46.39,0,.8-.04,1.2-.11.41-.07.77-.17,1.09-.28.14-.05.23-.13.3-.23.06-.11.09-.23.09-.39v-2.55c0-.18-.05-.31-.15-.4-.1-.09-.23-.14-.41-.14Z"/><path class="cls-1" d="M19.65,37.56c.18,0,.32-.05.41-.14.1-.09.15-.23.15-.4s-.05-.3-.15-.39c-.1-.09-.23-.14-.41-.14h-3.84c-.24,0-.42.06-.54.18-.13.12-.19.3-.19.53v5.98c0,.23.06.41.19.53.13.12.31.18.54.18h3.84c.18,0,.32-.05.41-.14.1-.09.15-.22.15-.4s-.05-.31-.15-.4c-.1-.09-.23-.14-.41-.14h-3.25v-2.15h3.01c.19,0,.33-.05.42-.14.09-.09.14-.22.14-.4s-.05-.31-.14-.4c-.09-.09-.23-.14-.42-.14h-3.01v-2.04h3.25Z"/><path class="cls-1" d="M17.75,35.8c.08.06.17.1.27.1.1,0,.2-.04.29-.12l1.1-1.04c.1-.09.15-.19.15-.29,0-.1-.03-.19-.1-.28-.06-.08-.15-.15-.25-.19-.11-.04-.21-.06-.33-.04-.11.02-.21.08-.3.2l-.91,1.16c-.07.09-.1.19-.08.28.02.09.07.17.15.24Z"/><path class="cls-1" d="M25.22,36.97c-.09-.2-.21-.35-.34-.44-.13-.09-.28-.13-.45-.13s-.32.04-.46.13c-.13.09-.25.23-.34.44l-2.84,6.15c-.07.16-.1.31-.08.44.02.13.08.23.19.31.1.08.24.12.41.12.19,0,.33-.05.43-.14.1-.09.2-.24.29-.44l.53-1.22h3.7l.54,1.22c.09.2.18.34.3.44.11.09.27.14.47.14.16,0,.3-.04.4-.11.1-.07.16-.18.18-.31.02-.13,0-.28-.09-.44l-2.85-6.15ZM24.41,37.95h.02l1.37,3.16h-2.75l1.36-3.16Z"/><path class="cls-1" d="M34.89,36.4c-.21,0-.37.06-.48.17-.11.11-.17.27-.17.47v4.62l-3.84-4.87c-.11-.14-.21-.24-.3-.3s-.21-.09-.37-.09c-.18,0-.32.06-.44.17-.11.12-.17.28-.17.5v6.25c0,.21.06.37.17.48.11.11.27.17.48.17s.37-.06.47-.17.16-.27.16-.48v-4.63l3.84,4.88c.11.14.22.24.32.3.1.06.23.09.39.09s.31-.06.41-.17c.1-.11.15-.27.15-.46v-6.31c0-.2-.05-.36-.16-.47-.11-.11-.27-.17-.47-.17Z"/><path class="cls-1" d="M42.81,36.63c-.1-.09-.25-.14-.44-.14h-5.57c-.19,0-.33.05-.44.14-.1.09-.16.23-.16.41s.05.31.16.42c.1.1.25.15.44.15h2.1v5.67c0,.22.06.39.18.51.12.12.29.18.51.18s.4-.06.52-.18c.11-.12.17-.29.17-.51v-5.67h2.1c.19,0,.33-.05.44-.15.1-.1.16-.24.16-.42s-.05-.32-.16-.41Z"/><path class="cls-1" d="M33.48,17.63c-.83,0-1.49.7-1.45,1.53,0,.15,0,.29,0,.44-.07,3.74-3.15,6.8-6.89,6.85-1.07.01-2.09-.22-3-.64-.55-.25-1.19-.15-1.62.28l-2.47,2.47s-.03.1,0,.13c1.94,1.47,4.36,2.35,6.99,2.35,6.39,0,11.57-5.18,11.57-11.57,0-.6-.05-1.19-.14-1.76,0-.04-.04-.07-.09-.07h-2.92Z"/><path class="cls-1" d="M20.59,12.88c.39.39.99.51,1.5.27.9-.42,1.9-.66,2.96-.66s2.02.23,2.9.63c.54.25,1.17.13,1.59-.29l2.55-2.55c-1.95-1.5-4.39-2.39-7.04-2.39s-5.09.89-7.05,2.39l2.59,2.59Z"/><path class="cls-1" d="M18.46,23.92c.4-.4.5-1,.26-1.52-.41-.89-.65-1.89-.65-2.94s.24-2.06.66-2.96c.24-.51.14-1.12-.26-1.52l-2.58-2.58c-1.51,1.95-2.41,4.4-2.41,7.06s.89,5.09,2.39,7.04l2.59-2.59Z"/><circle class="cls-1" cx="25.05" cy="19.47" r="3.34"/><circle class="cls-1" cx="14.08" cy="8.43" r="2.43"/><circle class="cls-1" cx="14.08" cy="30.49" r="2.43"/></svg>