<svg width="59" height="65" viewBox="0 0 59 65" fill="none" xmlns="http://www.w3.org/2000/svg">
<path d="M58.4913 29H51.8941C50.0135 29 48.5373 30.6142 48.6206 32.537C48.6353 32.8736 48.6396 33.2129 48.6335 33.5547C48.4767 42.2096 41.5218 49.2841 33.0642 49.3922C30.6391 49.4232 28.3394 48.8917 26.2787 47.9196C25.0448 47.3375 23.5907 47.5784 22.63 48.5616L17.0584 54.2637C16.9733 54.3508 16.9823 54.4957 17.0782 54.5702C21.4641 57.977 26.9326 60 32.8635 60C47.2983 60 59 48.0242 59 33.2514C59 31.8634 58.8889 30.5029 58.6885 29.1724C58.6735 29.0732 58.5894 29 58.4913 29Z" fill="#F2F2F2"/>
<path d="M26.5672 18.724C28.6735 17.7802 31.0244 17.2511 33.5059 17.2511C35.9339 17.2511 38.2368 17.7576 40.308 18.6635C41.5681 19.2147 43.0539 18.9606 44.0342 18.0258L50 12.3366C45.4305 8.99047 39.7124 7.00002 33.5059 7.00002C27.2941 7.00002 21.5715 8.99385 17 12.3451L23.0605 18.1246C23.983 19.0043 25.3864 19.2531 26.5672 18.724Z" fill="#F2F2F2"/>
<path d="M18.1358 23.0441L12.3706 17C9.00402 21.5726 7 27.3041 7 33.5271C7 39.7256 8.98836 45.4364 12.3309 50L18.1065 43.945C18.9983 43.0101 19.2158 41.5944 18.6842 40.3954C17.7585 38.3076 17.2403 35.9813 17.2403 33.5271C17.2403 31.051 17.7678 28.7052 18.7091 26.603C19.2465 25.4027 19.0301 23.9817 18.1358 23.0441Z" fill="#F2F2F2"/>
<path d="M32.5 40C36.6421 40 40 36.6421 40 32.5C40 28.3579 36.6421 25 32.5 25C28.3579 25 25 28.3579 25 32.5C25 36.6421 28.3579 40 32.5 40Z" fill="#F2F2F2"/>
<path d="M11.827 11.827C14.0043 9.64972 14.0043 6.11963 11.827 3.94234C9.64971 1.76505 6.11962 1.76505 3.94233 3.94234C1.76504 6.11963 1.76504 9.64972 3.94233 11.827C6.11963 14.0043 9.64971 14.0043 11.827 11.827Z" fill="#F2F2F2"/>
<path d="M13.4182 59.0855C13.7945 56.0294 11.622 53.2469 8.56587 52.8707C5.50976 52.4945 2.7273 54.6669 2.35108 57.723C1.97485 60.7791 4.14733 63.5616 7.20344 63.9378C10.2595 64.3141 13.042 62.1416 13.4182 59.0855Z" fill="#F2F2F2"/>
</svg>
