<svg viewBox="11.974074074074075 6.9998000000000005 90.14444444444445 97.3198" version="1.1" xmlns="http://www.w3.org/2000/svg" id="Layer_1" style="max-height: 500px" width="90.14444444444445" height="97.3198">
  
  <defs>
    <style>
      .st0 {
        fill: #2e307c;
      }
    </style>
  </defs>
  <path d="M100.7,49.2h-10.4c-3,0-5.3,2.5-5.2,5.5,0,.5,0,1,0,1.6-.2,13.4-11.3,24.3-24.6,24.5-3.8,0-7.5-.8-10.7-2.3-2-.9-4.3-.5-5.8,1l-8.8,8.8c-.1.1-.1.4,0,.5,6.9,5.3,15.6,8.4,25,8.4,22.9,0,41.4-18.5,41.4-41.4s-.2-4.3-.5-6.3c0-.2-.2-.3-.3-.3Z" class="st0"/>
  <path d="M49.5,33.1c3.2-1.5,6.8-2.4,10.6-2.4s7.2.8,10.4,2.3c1.9.9,4.2.5,5.7-1l9.1-9.1c-7-5.4-15.7-8.5-25.2-8.5s-18.2,3.2-25.2,8.6l9.2,9.2c1.4,1.4,3.5,1.8,5.4,1Z" class="st0"/>
  <path d="M36.6,39.7l-9.2-9.2c-5.4,7-8.6,15.7-8.6,25.3s3.2,18.2,8.5,25.2l9.3-9.3c1.4-1.4,1.8-3.6.9-5.4-1.5-3.2-2.3-6.7-2.3-10.5s.8-7.4,2.4-10.6c.9-1.8.5-4-.9-5.4Z" class="st0"/>
  <circle r="11.9" cy="55.7" cx="60.1" class="st0"/>
  <circle transform="translate(-5.4 19.5) rotate(-45)" r="8.7" cy="16.3" cx="20.9" class="st0"/>
  <circle transform="translate(-76.1 104.3) rotate(-83)" r="8.7" cy="95.2" cx="20.9" class="st0"/>
</svg>